<?xml version="1.0" encoding="UTF-8" standalone="no"?>
<!-- Created with Inkscape (http://www.inkscape.org/) -->

<svg
   xmlns:dc="http://purl.org/dc/elements/1.1/"
   xmlns:cc="http://creativecommons.org/ns#"
   xmlns:rdf="http://www.w3.org/1999/02/22-rdf-syntax-ns#"
   xmlns:svg="http://www.w3.org/2000/svg"
   xmlns="http://www.w3.org/2000/svg"
   xmlns:sodipodi="http://sodipodi.sourceforge.net/DTD/sodipodi-0.dtd"
   xmlns:inkscape="http://www.inkscape.org/namespaces/inkscape"
   id="svg2"
   version="1.1"
   inkscape:version="0.91 r13725"
   xml:space="preserve"
   width="150.41251"
   height="114.2875"
   viewBox="0 0 150.41251 114.2875"
   sodipodi:docname="Berkeley_Lab.svg"><metadata
     id="metadata8"><rdf:RDF><cc:Work
         rdf:about=""><dc:format>image/svg+xml</dc:format><dc:type
           rdf:resource="http://purl.org/dc/dcmitype/StillImage" /><dc:title></dc:title></cc:Work></rdf:RDF></metadata><defs
     id="defs6" /><sodipodi:namedview
     pagecolor="#ffffff"
     bordercolor="#666666"
     borderopacity="1"
     objecttolerance="10"
     gridtolerance="10"
     guidetolerance="10"
     inkscape:pageopacity="0"
     inkscape:pageshadow="2"
     inkscape:window-width="746"
     inkscape:window-height="480"
     id="namedview4"
     showgrid="false"
     inkscape:zoom="2.0649678"
     inkscape:cx="75.206253"
     inkscape:cy="57.143749"
     inkscape:window-x="0"
     inkscape:window-y="0"
     inkscape:window-maximized="0"
     inkscape:current-layer="g10" /><g
     id="g10"
     inkscape:groupmode="layer"
     inkscape:label="ink_ext_XXXXXX"
     transform="matrix(1.25,0,0,-1.25,0,114.2875)"><g
       id="g12"
       transform="scale(0.1,0.1)"><path
         d="M 1193.29,32.1484 C 1193.29,19.9609 1183.33,10 1171.14,10 L 32.1445,10 C 19.9648,10 10,19.9609 10,32.1484 l 0,850.0156 c 0,12.176 9.9648,22.145 22.1445,22.145 l 1138.9955,0 c 12.19,0 22.15,-9.969 22.15,-22.145 l 0,-850.0156"
         style="fill:#022e4d;fill-opacity:1;fill-rule:nonzero;stroke:none"
         id="path14"
         inkscape:connector-curvature="0" /><path
         d="M 1193.29,32.1484 C 1193.29,19.9609 1183.33,10 1171.14,10 L 32.1445,10 C 19.9648,10 10,19.9609 10,32.1484 l 0,850.0156 c 0,12.176 9.9648,22.145 22.1445,22.145 l 1138.9955,0 c 12.19,0 22.15,-9.969 22.15,-22.145 l 0,-850.0156 z"
         style="fill:none;stroke:#ffffff;stroke-width:20;stroke-linecap:butt;stroke-linejoin:miter;stroke-miterlimit:4;stroke-dasharray:none;stroke-opacity:1"
         id="path16"
         inkscape:connector-curvature="0" /><path
         d="m 1048.92,613.73 -42.47,103.196 -34.868,-77.844 0,6.711 36.918,93.484 44.46,-106.765 -4.04,-18.782"
         style="fill:#ffffff;fill-opacity:1;fill-rule:nonzero;stroke:none"
         id="path18"
         inkscape:connector-curvature="0" /><path
         d="m 780.215,507.773 36.777,6.543 c -7.156,2.618 -15.262,4.368 -23.523,4.981 0.027,0.012 0.039,0.012 0.078,0.019 -0.07,-0.007 -0.117,-0.007 -0.168,-0.019 -19.285,1.359 -39.395,-3.594 -50.645,-18.574 -0.476,-18.457 -4.082,-36.731 -2.644,-55.352 l 36.883,6.574 c -1.407,18.446 1.074,36.582 3.117,55.196 0.055,0.195 0.078,0.429 0.125,0.632"
         style="fill:#ffffff;fill-opacity:1;fill-rule:nonzero;stroke:none"
         id="path20"
         inkscape:connector-curvature="0" /><path
         d="m 674.855,509.484 36.766,6.551 c -7.187,2.637 -15.281,4.367 -23.516,4.973 0.02,0.008 0.032,0.008 0.071,0.039 -0.071,-0.012 -0.129,-0.031 -0.196,-0.039 -19.242,1.375 -39.359,-3.625 -50.636,-18.567 -0.481,-18.464 -4.063,-36.738 -2.664,-55.371 l 36.922,6.59 c -1.426,18.442 1.093,36.582 3.117,55.199 0.008,0.204 0.094,0.426 0.136,0.625"
         style="fill:#ffffff;fill-opacity:1;fill-rule:nonzero;stroke:none"
         id="path22"
         inkscape:connector-curvature="0" /><path
         d="m 570.859,508.723 36.786,6.531 c -7.196,2.637 -15.274,4.363 -23.551,4.961 0.047,0.019 0.086,0.019 0.086,0.058 -0.039,-0.039 -0.117,-0.039 -0.157,-0.058 -19.25,1.367 -39.406,-3.582 -50.671,-18.555 -0.414,-18.426 -4.036,-36.75 -2.629,-55.332 l 36.882,6.555 c -1.394,18.426 1.125,36.601 3.137,55.195 0.012,0.215 0.098,0.418 0.117,0.645"
         style="fill:#ffffff;fill-opacity:1;fill-rule:nonzero;stroke:none"
         id="path24"
         inkscape:connector-curvature="0" /><path
         d="m 463.176,508.723 36.765,6.531 c -7.148,2.637 -15.246,4.363 -23.503,4.961 0.015,0.019 0.015,0.019 0.066,0.058 -0.059,-0.039 -0.125,-0.039 -0.188,-0.058 -19.253,1.367 -39.382,-3.582 -50.64,-18.555 -0.449,-18.426 -4.067,-36.75 -2.641,-55.332 l 36.906,6.555 c -1.406,18.426 1.075,36.601 3.094,55.195 0.063,0.215 0.11,0.418 0.141,0.645"
         style="fill:#ffffff;fill-opacity:1;fill-rule:nonzero;stroke:none"
         id="path26"
         inkscape:connector-curvature="0" /><path
         d="m 357.668,507.063 36.758,6.542 c -7.168,2.637 -15.254,4.375 -23.535,4.961 0.039,0.028 0.078,0.055 0.105,0.055 -0.066,0 -0.137,-0.027 -0.203,-0.055 -19.25,1.375 -39.367,-3.593 -50.625,-18.546 -0.473,-18.446 -4.055,-36.747 -2.648,-55.36 l 36.882,6.57 c -1.406,18.458 1.118,36.575 3.149,55.196 0,0.195 0.054,0.422 0.117,0.637"
         style="fill:#ffffff;fill-opacity:1;fill-rule:nonzero;stroke:none"
         id="path28"
         inkscape:connector-curvature="0" /><path
         d="m 252.285,508.82 36.778,6.485 c -7.168,2.656 -15.274,4.402 -23.536,5.019 0.032,0 0.039,0 0.071,0.02 -0.039,-0.02 -0.129,-0.02 -0.168,-0.02 -19.278,1.328 -39.375,-3.633 -50.664,-18.586 -0.43,-18.445 -4.051,-36.738 -2.637,-55.34 l 36.902,6.571 c -1.414,18.418 1.098,36.582 3.117,55.148 0.04,0.25 0.086,0.449 0.137,0.703"
         style="fill:#ffffff;fill-opacity:1;fill-rule:nonzero;stroke:none"
         id="path30"
         inkscape:connector-curvature="0" /><path
         d="m 148.313,507.996 36.753,6.567 c -7.156,2.597 -15.242,4.363 -23.511,4.96 0.015,0.02 0.039,0.02 0.039,0.02 -0.024,0 -0.078,0 -0.168,-0.02 -19.238,1.356 -39.363,-3.613 -50.613,-18.554 -0.461,-18.469 -4.055,-36.739 -2.676,-55.391 l 36.914,6.582 c -1.43,18.457 1.094,36.57 3.14,55.176 0.039,0.254 0.063,0.437 0.122,0.66"
         style="fill:#ffffff;fill-opacity:1;fill-rule:nonzero;stroke:none"
         id="path32"
         inkscape:connector-curvature="0" /><path
         d="m 349.414,753.281 67.774,30.071 65.125,-35.43 0.746,-11.973 20.234,13.043 1.297,14.582 -62.063,35.176 -93.113,-45.469"
         style="fill:#ffffff;fill-opacity:1;fill-rule:nonzero;stroke:none"
         id="path34"
         inkscape:connector-curvature="0" /><path
         d="m 1044.01,589.797 c 0,-23.184 0,-46.359 0,-69.484 0,-4.266 -3.5,-8.036 -8.05,-8.036 -4.54,0 -8.06,3.77 -8.06,8.036 0,23.125 0,46.3 0,69.484 0,4.488 3.52,8.066 8.06,8.066 4.55,0 8.05,-3.578 8.05,-8.066 l 0,0"
         style="fill:#ffffff;fill-opacity:1;fill-rule:nonzero;stroke:none"
         id="path36"
         inkscape:connector-curvature="0" /><path
         d="m 1015.81,590.117 c 0,-23.152 0,-46.289 0,-69.48 0,-4.25 -3.54,-8.086 -8.08,-8.086 -4.52,0 -8.062,3.836 -8.062,8.086 0,23.191 0,46.328 0,69.48 0,4.582 3.542,8.059 8.062,8.059 4.54,0 8.08,-3.477 8.08,-8.059 l 0,0"
         style="fill:#ffffff;fill-opacity:1;fill-rule:nonzero;stroke:none"
         id="path38"
         inkscape:connector-curvature="0" /><path
         d="m 986.289,589.953 c 0,-23.144 0,-46.308 0,-69.473 0,-4.269 -3.547,-8.07 -8.105,-8.07 -4.5,0 -8.008,3.801 -8.008,8.07 0,23.165 0,46.329 0,69.473 0,4.559 3.508,8.047 8.008,8.047 4.558,0 8.105,-3.488 8.105,-8.047 l 0,0"
         style="fill:#ffffff;fill-opacity:1;fill-rule:nonzero;stroke:none"
         id="path40"
         inkscape:connector-curvature="0" /><path
         d="m 1073.08,286.828 0.12,322.051 -8.51,26.836 -8.54,-26.836 0.1,-321.965 16.83,-0.086"
         style="fill:#ffffff;fill-opacity:1;fill-rule:nonzero;stroke:none"
         id="path42"
         inkscape:connector-curvature="0" /><path
         d="m 958.723,286.836 0,322.043 -5.395,25.516 -5.367,-25.516 0,-322.051 10.762,0.008"
         style="fill:#ffffff;fill-opacity:1;fill-rule:nonzero;stroke:none"
         id="path44"
         inkscape:connector-curvature="0" /><path
         d="m 1048.92,613.73 -42.47,103.196 -34.868,-77.844 0,6.711 36.918,93.484 44.46,-106.765 -4.04,-18.782"
         style="fill:#ffffff;fill-opacity:1;fill-rule:nonzero;stroke:none"
         id="path46"
         inkscape:connector-curvature="0" /><path
         d="m 130.039,646.867 c 0,0 118.231,70.34 229.121,79.649 0,0 157.461,28.496 316.36,-52.305 0,0 91.835,-42.5 149.187,-108.457 l 55.273,0 0,-298.438 -21.417,-0.109 0,279.191 -50.45,0 c 0,0 -105.41,108.844 -254.871,149.207 -214.812,58.008 -416.086,-44.98 -423.203,-48.738"
         style="fill:#ffffff;fill-opacity:1;fill-rule:nonzero;stroke:none"
         id="path48"
         inkscape:connector-curvature="0" /><path
         d="m 142.922,124.043 c 6.598,0 19.422,-0.84 19.422,15.781 0,14.934 -12.403,16.914 -33.692,15.352 l 0,-31.133 14.27,0 z m -14.27,47.785 c 16.211,0 31.575,-1.855 31.575,13.262 0,15.633 -16.047,13.933 -31.575,13.933 l 0,-27.195 z m -21.972,-65.117 0,109.656 31.55,0 c 35.547,0 44.543,-12.414 44.543,-30.176 0,-10.293 -4.921,-17.753 -13.796,-22.675 10,-4.813 15.933,-14.246 15.933,-25.274 0,-18.875 -15.359,-31.531 -35.39,-31.531 l -42.84,0"
         style="fill:#ffffff;fill-opacity:1;fill-rule:nonzero;stroke:none"
         id="path50"
         inkscape:connector-curvature="0" /><path
         d="m 260.371,197.754 -46.223,0 0,-26.211 38.332,0 0,-18.621 -38.332,0 0,-27.629 48.926,0 0,-18.582 -70.918,0 0,109.656 68.215,0 0,-18.613"
         style="fill:#ffffff;fill-opacity:1;fill-rule:nonzero;stroke:none"
         id="path52"
         inkscape:connector-curvature="0" /><path
         d="m 302.598,170.84 c 9.59,0 24.277,-0.547 24.277,13.098 0,15.085 -14.836,13.816 -25.691,13.816 l -8.157,0 0,-26.914 9.571,0 z m 11.718,45.527 c 25.254,0 35.086,-18.047 35.086,-31.972 0,-12 -7.449,-23.145 -18.621,-27.657 l 21.875,-50.027 -23.125,0 -19.734,45.527 -16.77,0 0,-45.527 -21.98,0 0,109.656 43.269,0"
         style="fill:#ffffff;fill-opacity:1;fill-rule:nonzero;stroke:none"
         id="path54"
         inkscape:connector-curvature="0" /><path
         d="m 416.555,216.367 25.386,0 -32.703,-42.871 36.785,-66.785 -25.085,0 -26.512,47.48 -11.399,-14.511 0,-32.969 -22.011,0 0,109.656 22.011,0 0,-45.82 33.528,45.82"
         style="fill:#ffffff;fill-opacity:1;fill-rule:nonzero;stroke:none"
         id="path56"
         inkscape:connector-curvature="0" /><path
         d="m 520.129,197.754 -46.274,0 0,-26.211 38.379,0 0,-18.621 -38.379,0 0,-27.629 48.918,0 0,-18.582 -70.918,0 0,109.656 68.274,0 0,-18.613"
         style="fill:#ffffff;fill-opacity:1;fill-rule:nonzero;stroke:none"
         id="path58"
         inkscape:connector-curvature="0" /><path
         d="m 555.527,125.293 45.684,0 0,-18.582 -67.637,0 0,109.656 21.953,0 0,-91.074"
         style="fill:#ffffff;fill-opacity:1;fill-rule:nonzero;stroke:none"
         id="path60"
         inkscape:connector-curvature="0" /><path
         d="m 680.227,197.754 -46.25,0 0,-26.211 38.367,0 0,-18.621 -38.367,0 0,-27.629 48.933,0 0,-18.582 -70.898,0 0,109.656 68.215,0 0,-18.613"
         style="fill:#ffffff;fill-opacity:1;fill-rule:nonzero;stroke:none"
         id="path62"
         inkscape:connector-curvature="0" /><path
         d="m 745.691,150.969 0,-44.258 -21.968,0 0,44.258 -35.942,65.398 23.391,0 23.683,-48.172 24.52,48.172 22.676,0 -36.36,-65.398"
         style="fill:#ffffff;fill-opacity:1;fill-rule:nonzero;stroke:none"
         id="path64"
         inkscape:connector-curvature="0" /><path
         d="m 854.258,125.293 45.683,0 0,-18.582 -67.644,0 0,109.656 21.961,0 0,-91.074"
         style="fill:#ffffff;fill-opacity:1;fill-rule:nonzero;stroke:none"
         id="path66"
         inkscape:connector-curvature="0" /><path
         d="m 953.723,197.48 -0.559,0 -11.57,-45.945 23.699,0 -11.57,45.945 z m 45.507,-90.769 -22.382,0 -7.192,27.48 -32.429,0 -7.2,-27.48 -22.437,0 30.75,109.656 29.621,0 31.269,-109.656"
         style="fill:#ffffff;fill-opacity:1;fill-rule:nonzero;stroke:none"
         id="path68"
         inkscape:connector-curvature="0" /><path
         d="m 1044.7,124.043 c 6.61,0 19.45,-0.84 19.45,15.781 0,14.934 -12.39,16.914 -33.7,15.352 l 0,-31.133 14.25,0 z m -14.25,47.785 c 16.22,0 31.58,-1.855 31.58,13.262 0,15.633 -16.07,13.933 -31.58,13.933 l 0,-27.195 z m -21.98,-65.117 0,109.656 31.6,0 c 35.48,0 44.56,-12.414 44.56,-30.176 0,-10.293 -4.98,-17.753 -13.85,-22.675 10.04,-4.813 15.9,-14.246 15.9,-25.274 0,-18.875 -15.35,-31.531 -35.37,-31.531 l -42.84,0"
         style="fill:#ffffff;fill-opacity:1;fill-rule:nonzero;stroke:none"
         id="path70"
         inkscape:connector-curvature="0" /></g></g></svg>