<?xml version="1.0" encoding="UTF-8" standalone="no"?>
<!-- Created with Inkscape (http://www.inkscape.org/) -->

<svg
   xmlns:dc="http://purl.org/dc/elements/1.1/"
   xmlns:cc="http://creativecommons.org/ns#"
   xmlns:rdf="http://www.w3.org/1999/02/22-rdf-syntax-ns#"
   xmlns:svg="http://www.w3.org/2000/svg"
   xmlns="http://www.w3.org/2000/svg"
   xmlns:sodipodi="http://sodipodi.sourceforge.net/DTD/sodipodi-0.dtd"
   xmlns:inkscape="http://www.inkscape.org/namespaces/inkscape"
   id="svg2"
   version="1.1"
   inkscape:version="0.91 r13725"
   xml:space="preserve"
   width="675"
   height="225"
   viewBox="0 0 675 225"
   sodipodi:docname="wand.svg"><metadata
     id="metadata8"><rdf:RDF><cc:Work
         rdf:about=""><dc:format>image/svg+xml</dc:format><dc:type
           rdf:resource="http://purl.org/dc/dcmitype/StillImage" /><dc:title></dc:title></cc:Work></rdf:RDF></metadata><defs
     id="defs6" /><sodipodi:namedview
     pagecolor="#ffffff"
     bordercolor="#666666"
     borderopacity="1"
     objecttolerance="10"
     gridtolerance="10"
     guidetolerance="10"
     inkscape:pageopacity="0"
     inkscape:pageshadow="2"
     inkscape:window-width="746"
     inkscape:window-height="480"
     id="namedview4"
     showgrid="false"
     inkscape:zoom="0.33103073"
     inkscape:cx="307.41708"
     inkscape:cy="134.32486"
     inkscape:window-x="0"
     inkscape:window-y="0"
     inkscape:window-maximized="0"
     inkscape:current-layer="g12" /><g
     id="g10"
     inkscape:groupmode="layer"
     inkscape:label="ink_ext_XXXXXX"
     transform="matrix(1.25,0,0,-1.25,0,225)"><g
       id="g12"
       transform="scale(0.1,0.1)"><path
         d="M 0,0 0,0 0,0 0,0 Z"
         style="fill:#000000;fill-opacity:1;fill-rule:nonzero;stroke:none"
         id="path14"
         inkscape:connector-curvature="0" /><path
         d="m 0,0 5400,0 0,1800 L 0,1800 0,0 Z"
         style="fill:#ffffff;fill-opacity:1;fill-rule:nonzero;stroke:none"
         id="path16"
         inkscape:connector-curvature="0" /><path
         d="m 688.641,284 -38.082,0 -110.399,208 0,-208 -28.801,0 0,232.641 48,0 100.481,-190.082 0,190.082 28.801,0"
         style="fill:#000000;fill-opacity:1;fill-rule:evenodd;stroke:none"
         id="path18"
         inkscape:connector-curvature="0" /><path
         d="m 920.039,368.16 -128.641,0 c 0,-10.558 1.602,-19.84 4.801,-27.84 3.199,-8 7.68,-14.398 13.442,-19.519 5.437,-5.121 11.839,-8.961 19.199,-11.199 7.359,-2.563 15.68,-3.84 24.64,-3.84 11.84,0 23.68,2.238 35.84,7.039 11.84,4.801 20.481,9.597 25.602,14.078 l 1.598,0 0,-32 c -9.918,-4.16 -19.84,-7.68 -30.399,-10.559 -10.242,-2.879 -21.121,-4.16 -32.32,-4.16 -29.121,0 -51.52,7.68 -67.84,23.36 -16.32,15.679 -24.32,38.082 -24.32,66.878 0,28.481 7.679,50.883 23.359,67.84 15.68,16.641 36.16,24.961 61.441,24.961 23.68,0 41.598,-6.719 54.399,-20.48 12.801,-13.758 19.199,-33.278 19.199,-58.559 l 0,-16 z m -28.48,22.399 c 0,15.363 -3.84,27.203 -11.52,35.839 -7.68,8.321 -19.519,12.481 -35.199,12.481 -15.68,0 -28.16,-4.481 -37.442,-13.758 -9.597,-9.281 -14.718,-20.801 -16,-34.562"
         style="fill:#000000;fill-opacity:1;fill-rule:evenodd;stroke:none"
         id="path20"
         inkscape:connector-curvature="0" /><path
         d="m 1080.36,285.602 c -5.44,-1.602 -11.52,-2.883 -17.92,-3.84 -6.72,-0.961 -12.48,-1.282 -17.6,-1.282 -17.6,0 -31.36,4.801 -40.64,14.399 -9.278,9.601 -13.759,24.961 -13.759,46.082 l 0,92.801 -19.839,0 0,24.636 19.839,0 0,50.243 29.439,0 0,-50.243 60.48,0 0,-24.636 -60.48,0 0,-79.684 c 0,-9.277 0.32,-16.316 0.64,-21.437 0.32,-5.121 1.92,-9.922 4.48,-14.403 2.24,-4.16 5.44,-7.359 9.28,-9.277 4.16,-1.922 10.24,-2.883 18.24,-2.883 4.8,0 9.92,0.641 15.04,2.242 5.12,1.282 8.96,2.559 11.2,3.52 l 1.6,0"
         style="fill:#000000;fill-opacity:1;fill-rule:evenodd;stroke:none"
         id="path22"
         inkscape:connector-curvature="0" /><path
         d="M 1361.64,458.398 1316.2,284 1289,284 1244.2,418.398 1199.4,284 l -26.88,0 -46.08,174.398 30.4,0 32.32,-135.039 43.52,135.039 24.32,0 44.8,-135.039 30.4,135.039"
         style="fill:#000000;fill-opacity:1;fill-rule:evenodd;stroke:none"
         id="path24"
         inkscape:connector-curvature="0" /><path
         d="m 1577.6,371.039 c 0,-28.48 -7.36,-50.879 -21.76,-67.199 -14.72,-16.32 -34.24,-24.641 -58.56,-24.641 -24.64,0 -44.48,8.321 -58.88,24.641 -14.4,16.32 -21.76,38.719 -21.76,67.199 0,28.481 7.36,50.883 21.76,67.52 14.4,16.32 34.24,24.64 58.88,24.64 24.32,0 43.84,-8.32 58.56,-24.64 14.4,-16.637 21.76,-39.039 21.76,-67.52 z m -30.4,0 c 0,22.402 -4.48,39.359 -13.12,50.242 -8.96,10.879 -21.12,16.321 -36.8,16.321 -16,0 -28.16,-5.442 -37.12,-16.321 -8.64,-10.883 -13.12,-27.84 -13.12,-50.242 0,-21.758 4.48,-38.078 13.12,-49.277 8.96,-11.203 21.12,-16.961 37.12,-16.961 15.36,0 27.84,5.437 36.48,16.64 8.96,11.2 13.44,27.84 13.44,49.598"
         style="fill:#000000;fill-opacity:1;fill-rule:evenodd;stroke:none"
         id="path26"
         inkscape:connector-curvature="0" /><path
         d="m 1757.92,426.398 -1.6,0 c -4.48,0.961 -8.64,1.602 -12.8,2.243 -4.16,0.32 -8.96,0.64 -14.4,0.64 -9.28,0 -17.92,-1.922 -26.56,-6.082 -8.32,-3.84 -16.64,-8.961 -24.32,-15.359 l 0,-123.84 -29.44,0 0,174.398 29.44,0 0,-25.597 c 11.84,9.277 22.08,16 31.04,19.84 8.64,3.839 17.92,5.757 27.2,5.757 5.12,0 8.96,0 11.2,-0.32 2.24,-0.316 5.76,-0.957 10.24,-1.598"
         style="fill:#000000;fill-opacity:1;fill-rule:evenodd;stroke:none"
         id="path28"
         inkscape:connector-curvature="0" /><path
         d="m 1969.52,284 -39.04,0 -70.08,76.16 -18.88,-17.922 0,-58.238 -29.44,0 0,243.199 29.44,0 0,-156.16 84.8,87.359 37.12,0 -81.28,-80.636"
         style="fill:#000000;fill-opacity:1;fill-rule:evenodd;stroke:none"
         id="path30"
         inkscape:connector-curvature="0" /><path
         d="m 2360,284 -40,0 -78.08,92.48 -43.52,0 0,-92.48 -31.04,0 0,232.641 65.28,0 c 14.08,0 25.6,-0.961 35.2,-2.879 9.28,-1.602 17.6,-4.801 25.28,-9.602 8.32,-5.441 15.04,-12.16 19.84,-20.16 4.8,-8 7.04,-18.238 7.04,-30.719 0,-16.64 -4.16,-30.722 -12.8,-41.922 -8.32,-11.519 -19.84,-19.839 -34.56,-25.597 L 2360,284 Z m -72.32,167.039 c 0,6.723 -1.28,12.481 -3.52,17.602 -2.24,5.121 -6.08,9.597 -11.52,13.121 -4.48,2.879 -9.92,5.117 -16,6.078 -6.08,1.281 -13.44,1.922 -21.76,1.922 l -36.48,0 0,-87.364 31.36,0 c 9.6,0 18.24,0.961 25.6,2.563 7.36,1.598 13.44,4.801 18.56,9.598 4.8,4.16 8,9.281 10.24,15.043 2.24,5.437 3.52,12.796 3.52,21.437"
         style="fill:#000000;fill-opacity:1;fill-rule:evenodd;stroke:none"
         id="path32"
         inkscape:connector-curvature="0" /><path
         d="m 2552.04,368.16 -128.64,0 c 0,-10.558 1.6,-19.84 4.8,-27.84 3.2,-8 7.68,-14.398 13.44,-19.519 5.44,-5.121 11.84,-8.961 19.2,-11.199 7.36,-2.563 15.68,-3.84 24.64,-3.84 11.84,0 23.68,2.238 35.84,7.039 11.84,4.801 20.48,9.597 25.6,14.078 l 1.6,0 0,-32 c -9.92,-4.16 -19.84,-7.68 -30.4,-10.559 -10.24,-2.879 -21.12,-4.16 -32.32,-4.16 -29.12,0 -51.52,7.68 -67.84,23.36 -16.32,15.679 -24.32,38.082 -24.32,66.878 0,28.481 7.68,50.883 23.36,67.84 15.68,16.641 36.16,24.961 61.44,24.961 23.68,0 41.6,-6.719 54.4,-20.48 12.8,-13.758 19.2,-33.278 19.2,-58.559 l 0,-16 z m -28.48,22.399 c 0,15.363 -3.84,27.203 -11.52,35.839 -7.68,8.321 -19.52,12.481 -35.2,12.481 -15.68,0 -28.16,-4.481 -37.44,-13.758 -9.6,-9.281 -14.72,-20.801 -16,-34.562"
         style="fill:#000000;fill-opacity:1;fill-rule:evenodd;stroke:none"
         id="path34"
         inkscape:connector-curvature="0" /><path
         d="m 2747.6,334.559 c 0,-16 -6.72,-28.797 -19.84,-39.039 -13.12,-10.239 -31.04,-15.36 -53.76,-15.36 -13.12,0 -24.96,1.602 -35.52,4.481 -10.88,3.199 -19.84,6.718 -27.2,10.238 l 0,32.961 1.6,0 c 9.28,-7.039 19.52,-12.801 30.72,-16.961 11.2,-4.16 22.08,-6.078 32.64,-6.078 12.8,0 22.72,2.238 30.08,6.398 7.36,4.16 10.88,10.563 10.88,19.52 0,7.043 -1.92,12.16 -5.76,15.679 -4.16,3.524 -11.84,6.723 -23.04,9.282 -4.16,0.64 -9.28,1.922 -16,3.199 -6.72,1.281 -12.8,2.562 -18.56,3.84 -15.04,4.16 -25.92,10.242 -32.32,17.922 -6.4,8 -9.6,17.597 -9.6,29.121 0,7.039 1.6,13.758 4.48,20.16 2.88,6.398 7.36,12.156 13.44,16.957 6.08,5.121 13.44,8.961 22.4,11.84 8.96,2.883 19.2,4.16 30.4,4.16 10.24,0 20.8,-1.277 31.68,-3.84 10.56,-2.559 19.52,-5.758 26.56,-9.277 l 0,-31.364 -1.6,0 c -7.36,5.442 -16.64,10.243 -27.2,14.082 -10.88,3.84 -21.12,5.758 -31.68,5.758 -10.56,0 -19.52,-1.918 -26.88,-6.078 -7.36,-4.16 -11.2,-10.558 -11.2,-18.558 0,-7.364 2.24,-12.481 6.72,-16.321 4.48,-3.519 11.52,-6.402 21.12,-8.961 5.44,-0.961 11.52,-2.242 18.24,-3.519 6.72,-1.281 12.16,-2.563 16.64,-3.52 13.76,-3.203 24,-8.64 31.36,-16 7.36,-7.679 11.2,-17.922 11.2,-30.722"
         style="fill:#000000;fill-opacity:1;fill-rule:evenodd;stroke:none"
         id="path36"
         inkscape:connector-curvature="0" /><path
         d="m 2961.04,368.16 -128.64,0 c 0,-10.558 1.6,-19.84 4.8,-27.84 3.2,-8 7.68,-14.398 13.44,-19.519 5.44,-5.121 11.84,-8.961 19.2,-11.199 7.36,-2.563 15.68,-3.84 24.64,-3.84 11.84,0 23.68,2.238 35.84,7.039 11.84,4.801 20.48,9.597 25.6,14.078 l 1.6,0 0,-32 c -9.92,-4.16 -19.84,-7.68 -30.4,-10.559 -10.24,-2.879 -21.12,-4.16 -32.32,-4.16 -29.12,0 -51.52,7.68 -67.84,23.36 -16.32,15.679 -24.32,38.082 -24.32,66.878 0,28.481 7.68,50.883 23.36,67.84 15.68,16.641 36.16,24.961 61.44,24.961 23.68,0 41.6,-6.719 54.4,-20.48 12.8,-13.758 19.2,-33.278 19.2,-58.559 l 0,-16 z m -28.48,22.399 c 0,15.363 -3.84,27.203 -11.52,35.839 -7.68,8.321 -19.52,12.481 -35.2,12.481 -15.68,0 -28.16,-4.481 -37.44,-13.758 -9.6,-9.281 -14.72,-20.801 -16,-34.562"
         style="fill:#000000;fill-opacity:1;fill-rule:evenodd;stroke:none"
         id="path38"
         inkscape:connector-curvature="0" /><path
         d="m 3166.8,284 -29.44,0 0,18.559 c -2.56,-1.598 -6.08,-4.161 -10.56,-7.36 -4.48,-3.199 -8.64,-5.758 -12.8,-7.679 -4.8,-2.239 -10.56,-4.161 -16.96,-5.758 -6.08,-1.602 -13.76,-2.563 -22.08,-2.563 -15.68,0 -29.12,5.121 -40,15.68 -10.88,10.242 -16.32,23.68 -16.32,40 0,13.121 2.88,23.68 8.64,32 5.44,8.32 13.44,14.723 24,19.199 10.56,4.801 23.36,8 38.4,9.602 14.72,1.601 30.72,2.879 47.68,3.84 l 0,4.48 c 0,6.719 -1.28,12.48 -3.52,16.641 -2.24,4.48 -5.76,8 -9.92,10.558 -4.16,2.242 -9.28,3.84 -15.04,4.801 -5.76,0.961 -11.84,1.281 -18.24,1.281 -7.68,0 -16.32,-0.961 -25.92,-3.203 -9.28,-1.918 -19.2,-5.117 -29.12,-8.957 l -1.6,0 0,29.758 c 5.76,1.601 14.08,3.199 24.96,5.121 10.56,1.922 21.44,2.879 32,2.879 12.16,0 23.04,-0.957 32,-3.199 9.28,-1.918 16.96,-5.442 23.68,-10.239 6.72,-4.8 11.52,-10.882 15.04,-18.562 3.52,-7.68 5.12,-16.957 5.12,-28.481 l 0,-118.398 z m -29.44,42.879 0,48.961 c -8.96,-0.641 -19.52,-1.281 -31.36,-2.238 -12.16,-1.282 -21.76,-2.563 -28.8,-4.801 -8.32,-2.242 -15.36,-6.082 -20.48,-11.199 -5.12,-5.122 -7.68,-11.84 -7.68,-20.801 0,-10.242 2.88,-17.602 8.96,-22.723 6.08,-5.117 15.36,-7.68 27.52,-7.68 10.24,0 19.84,1.922 28.16,6.082 8.64,3.84 16.32,8.961 23.68,14.399"
         style="fill:#000000;fill-opacity:1;fill-rule:evenodd;stroke:none"
         id="path40"
         inkscape:connector-curvature="0" /><path
         d="m 3357.92,426.398 -1.6,0 c -4.48,0.961 -8.64,1.602 -12.8,2.243 -4.16,0.32 -8.96,0.64 -14.4,0.64 -9.28,0 -17.92,-1.922 -26.56,-6.082 -8.32,-3.84 -16.64,-8.961 -24.32,-15.359 l 0,-123.84 -29.44,0 0,174.398 29.44,0 0,-25.597 c 11.84,9.277 22.08,16 31.04,19.84 8.64,3.839 17.92,5.757 27.2,5.757 5.12,0 8.96,0 11.2,-0.32 2.24,-0.316 5.76,-0.957 10.24,-1.598"
         style="fill:#000000;fill-opacity:1;fill-rule:evenodd;stroke:none"
         id="path42"
         inkscape:connector-curvature="0" /><path
         d="m 3540.08,294.879 c -9.92,-4.481 -19.2,-8.32 -27.84,-10.879 -8.96,-2.559 -18.24,-3.84 -28.16,-3.84 -12.48,0 -24,1.918 -34.56,5.442 -10.56,3.839 -19.52,9.277 -26.88,16.957 -7.68,7.363 -13.44,16.961 -17.6,28.48 -4.16,11.199 -6.4,24.641 -6.4,40 0,28.481 7.68,50.883 23.36,67.199 15.68,16.321 36.48,24.321 62.08,24.321 10.24,0 19.84,-1.278 29.44,-4.161 9.6,-2.878 18.56,-6.398 26.56,-10.238 l 0,-32.64 -1.6,0 c -8.96,7.039 -18.24,12.16 -27.84,16 -9.28,3.519 -18.56,5.441 -27.84,5.441 -16.64,0 -29.76,-5.441 -39.36,-16.641 -9.6,-11.199 -14.4,-27.519 -14.4,-49.281 0,-21.117 4.8,-37.117 14.08,-48.32 9.6,-11.199 22.72,-16.957 39.68,-16.957 6.08,0 12.16,0.636 18.24,2.238 6.08,1.602 11.52,3.52 16.64,6.078 4.16,2.242 8.32,4.481 11.84,6.723 3.84,2.558 6.72,4.801 8.96,6.398 l 1.6,0"
         style="fill:#000000;fill-opacity:1;fill-rule:evenodd;stroke:none"
         id="path44"
         inkscape:connector-curvature="0" /><path
         d="m 3750.04,284 -29.44,0 0,99.199 c 0,8.321 -0.32,15.68 -1.28,22.723 -0.96,7.039 -2.88,12.476 -5.44,16.316 -2.56,4.481 -6.08,7.684 -11.2,9.922 -4.8,2.238 -11.2,3.199 -18.88,3.199 -8.32,0 -16.64,-1.918 -25.28,-6.078 -8.96,-3.84 -17.28,-8.961 -25.28,-15.043 l 0,-130.238 -29.44,0 0,243.199 29.44,0 0,-88.32 c 9.28,7.68 18.56,13.762 28.48,17.922 9.92,4.16 19.84,6.398 30.08,6.398 19.2,0 33.6,-5.758 43.52,-16.961 9.92,-11.519 14.72,-27.84 14.72,-48.957"
         style="fill:#000000;fill-opacity:1;fill-rule:evenodd;stroke:none"
         id="path46"
         inkscape:connector-curvature="0" /><path
         d="m 4166.28,300.961 c -12.8,-5.762 -26.56,-10.883 -41.6,-15.359 -15.04,-4.161 -29.76,-6.403 -43.84,-6.403 -17.92,0 -34.56,2.563 -49.6,7.36 -15.36,5.121 -28.16,12.8 -38.72,22.722 -10.88,9.918 -18.88,22.719 -24.96,37.758 -5.76,15.359 -8.64,32.961 -8.64,53.441 0,37.122 10.88,66.559 32.64,88 21.76,21.442 51.52,32.321 89.6,32.321 13.12,0 26.56,-1.602 40.32,-4.801 14.08,-3.199 28.8,-8.641 44.8,-16 l 0,-36.801 -2.88,0 c -3.2,2.563 -8,5.762 -14.08,9.602 -6.08,4.16 -12.16,7.359 -17.92,9.918 -7.36,3.203 -15.36,6.082 -24.64,8 -8.96,2.242 -19.52,3.203 -31.04,3.203 -25.92,0 -46.72,-8.32 -61.76,-24.961 -15.04,-16.641 -22.72,-39.359 -22.72,-67.84 0,-30.082 8,-53.441 23.68,-70.082 16,-16.641 37.44,-24.961 64.64,-24.961 9.92,0 19.84,0.961 29.76,2.883 9.92,1.918 18.88,4.48 26.24,7.68 l 0,56.64 -62.4,0 0,27.52 93.12,0"
         style="fill:#000000;fill-opacity:1;fill-rule:evenodd;stroke:none"
         id="path48"
         inkscape:connector-curvature="0" /><path
         d="m 4352.92,426.398 -1.6,0 c -4.48,0.961 -8.64,1.602 -12.8,2.243 -4.16,0.32 -8.96,0.64 -14.4,0.64 -9.28,0 -17.92,-1.922 -26.56,-6.082 -8.32,-3.84 -16.64,-8.961 -24.32,-15.359 l 0,-123.84 -29.44,0 0,174.398 29.44,0 0,-25.597 c 11.84,9.277 22.08,16 31.04,19.84 8.64,3.839 17.92,5.757 27.2,5.757 5.12,0 8.96,0 11.2,-0.32 2.24,-0.316 5.76,-0.957 10.24,-1.598"
         style="fill:#000000;fill-opacity:1;fill-rule:evenodd;stroke:none"
         id="path50"
         inkscape:connector-curvature="0" /><path
         d="m 4554.6,371.039 c 0,-28.48 -7.36,-50.879 -21.76,-67.199 -14.72,-16.32 -34.24,-24.641 -58.56,-24.641 -24.64,0 -44.48,8.321 -58.88,24.641 -14.4,16.32 -21.76,38.719 -21.76,67.199 0,28.481 7.36,50.883 21.76,67.52 14.4,16.32 34.24,24.64 58.88,24.64 24.32,0 43.84,-8.32 58.56,-24.64 14.4,-16.637 21.76,-39.039 21.76,-67.52 z m -30.4,0 c 0,22.402 -4.48,39.359 -13.12,50.242 -8.96,10.879 -21.12,16.321 -36.8,16.321 -16,0 -28.16,-5.442 -37.12,-16.321 -8.64,-10.883 -13.12,-27.84 -13.12,-50.242 0,-21.758 4.48,-38.078 13.12,-49.277 8.96,-11.203 21.12,-16.961 37.12,-16.961 15.36,0 27.84,5.437 36.48,16.64 8.96,11.2 13.44,27.84 13.44,49.598"
         style="fill:#000000;fill-opacity:1;fill-rule:evenodd;stroke:none"
         id="path52"
         inkscape:connector-curvature="0" /><path
         d="m 4770.76,284 -29.44,0 0,19.52 c -9.92,-8 -19.52,-13.758 -28.48,-17.918 -8.96,-4.161 -19.2,-6.403 -30.08,-6.403 -18.24,0 -32.64,5.442 -42.88,16.641 -10.24,11.199 -15.36,27.84 -15.36,49.281 l 0,113.277 29.44,0 0,-99.199 c 0,-8.961 0.32,-16.64 1.28,-22.719 0.96,-6.402 2.56,-11.839 5.44,-16.32 2.56,-4.48 6.4,-8 10.88,-9.922 4.48,-2.238 10.88,-3.199 19.52,-3.199 7.68,0 16,1.922 24.96,6.082 8.96,3.84 17.6,8.957 25.28,15.039 l 0,130.238 29.44,0"
         style="fill:#000000;fill-opacity:1;fill-rule:evenodd;stroke:none"
         id="path54"
         inkscape:connector-curvature="0" /><path
         d="m 5007.72,373.281 c 0,-14.082 -1.92,-27.203 -6.08,-38.722 -4.16,-11.84 -9.92,-21.758 -17.28,-29.758 -6.72,-7.68 -15.04,-13.762 -24.32,-17.922 -9.28,-4.16 -19.2,-6.399 -29.76,-6.399 -8.96,0 -17.28,0.961 -24.64,2.879 -7.36,1.922 -14.72,5.121 -22.4,9.282 l 0,-72.961 -29.44,0 0,238.718 29.44,0 0,-18.238 c 7.68,6.399 16.64,11.84 26.24,16.32 9.92,4.481 20.16,6.719 31.36,6.719 21.12,0 37.44,-8 49.28,-23.679 11.84,-16 17.6,-38.079 17.6,-66.239 z m -30.4,-0.64 c 0,21.121 -3.52,36.8 -10.88,47.039 -7.04,10.558 -18.24,15.679 -32.96,15.679 -8.64,0 -16.96,-1.918 -25.6,-5.437 -8.64,-3.524 -16.96,-8.32 -24.64,-14.402 l 0,-98.879 c 8.32,-3.52 15.68,-6.082 21.44,-7.68 6.08,-1.281 12.8,-1.922 20.48,-1.922 16.32,0 29.12,5.441 38.4,16.641 9.28,10.879 13.76,27.199 13.76,48.961"
         style="fill:#000000;fill-opacity:1;fill-rule:evenodd;stroke:none"
         id="path56"
         inkscape:connector-curvature="0" /><path
         d="m 4200,720.16 c 7.24,-0.109 14.51,-0.16 21.8,-0.16 397.65,0 720,161.18 720,360 0,198.82 -322.35,360 -720,360"
         style="fill:none;stroke:#000000;stroke-width:150;stroke-linecap:round;stroke-linejoin:round;stroke-miterlimit:3.8636899;stroke-dasharray:none;stroke-opacity:1"
         id="path58"
         inkscape:connector-curvature="0" /><path
         d="m 4200,1080 0,-360"
         style="fill:none;stroke:#000000;stroke-width:150;stroke-linecap:round;stroke-linejoin:round;stroke-miterlimit:3.8636899;stroke-dasharray:none;stroke-opacity:1"
         id="path60"
         inkscape:connector-curvature="0" /><path
         d="m 2880,1080 0,360 720,-720 0,360"
         style="fill:none;stroke:#000000;stroke-width:150;stroke-linecap:round;stroke-linejoin:round;stroke-miterlimit:3.8636899;stroke-dasharray:none;stroke-opacity:1"
         id="path62"
         inkscape:connector-curvature="0" /><path
         d="m 600,1440 120,-360 120,-360 240,720 240,-720 120,360"
         style="fill:none;stroke:#000000;stroke-width:150;stroke-linecap:round;stroke-linejoin:round;stroke-miterlimit:3.8636899;stroke-dasharray:none;stroke-opacity:1"
         id="path64"
         inkscape:connector-curvature="0" /><path
         d="m 1440,1080 1440,0"
         style="fill:none;stroke:#000000;stroke-width:50;stroke-linecap:butt;stroke-linejoin:round;stroke-miterlimit:3.8636899;stroke-dasharray:none;stroke-opacity:1"
         id="path66"
         inkscape:connector-curvature="0" /><path
         d="m 3600,1080 600,0"
         style="fill:none;stroke:#000000;stroke-width:50;stroke-linecap:butt;stroke-linejoin:round;stroke-miterlimit:3.8636899;stroke-dasharray:none;stroke-opacity:1"
         id="path68"
         inkscape:connector-curvature="0" /><path
         d="m 2215.69,1460 415.69,-720 -831.39,0 415.69,720"
         style="fill:#000000;fill-opacity:1;fill-rule:nonzero;stroke:none"
         id="path70"
         inkscape:connector-curvature="0" /><path
         d="m 2155.69,1500 415.69,-720 -831.39,0 415.69,720"
         style="fill:#ff222c;fill-opacity:1;fill-rule:nonzero;stroke:none"
         id="path72"
         inkscape:connector-curvature="0" /></g></g></svg>